<svg width="50" height="50" viewBox="0 0 50 50" fill="none" xmlns="http://www.w3.org/2000/svg">
<circle cx="25" cy="25" r="25" fill="#8BC63E"/>
<path d="M27.6784 25.781L37.487 15.9724C37.7074 15.715 37.8226 15.3839 37.8095 15.0453C37.7965 14.7067 37.6561 14.3854 37.4165 14.1458C37.1768 13.9062 36.8556 13.7658 36.517 13.7527C36.1784 13.7397 35.8473 13.8548 35.5899 14.0753L25.7813 23.8839L15.9727 14.0618C15.7153 13.8414 15.3842 13.7262 15.0456 13.7393C14.707 13.7524 14.3857 13.8927 14.1461 14.1324C13.9065 14.372 13.7661 14.6932 13.753 15.0318C13.74 15.3705 13.8551 15.7016 14.0756 15.9589L23.8842 25.781L14.0621 35.5896C13.9213 35.7102 13.8069 35.8586 13.7261 36.0256C13.6453 36.1925 13.6 36.3743 13.5928 36.5596C13.5856 36.7449 13.6169 36.9297 13.6845 37.1024C13.7522 37.275 13.8548 37.4318 13.9859 37.5629C14.117 37.6941 14.2738 37.7967 14.4465 37.8643C14.6191 37.932 14.8039 37.9632 14.9892 37.956C15.1745 37.9489 15.3563 37.9035 15.5233 37.8227C15.6902 37.742 15.8386 37.6276 15.9592 37.4867L25.7813 27.6781L35.5899 37.4867C35.8473 37.7072 36.1784 37.8223 36.517 37.8093C36.8556 37.7962 37.1768 37.6558 37.4165 37.4162C37.6561 37.1766 37.7965 36.8553 37.8095 36.5167C37.8226 36.1781 37.7074 35.847 37.487 35.5896L27.6784 25.781Z" fill="black"/>
</svg>
