<svg width="221" height="32" viewBox="0 0 221 32" fill="none" xmlns="http://www.w3.org/2000/svg">
<path d="M0.975 18.74V13.91L16.025 5.86V10.69L5.63 16.185V16.465L16.025 21.96V26.79L0.975 18.74ZM23.3613 27V23.115H28.6113V6.455H23.3613V2.57H39.1113V6.455H33.8613V23.115H39.1113V27H23.3613ZM53.7627 27.42C51.756 27.42 50.006 27.1167 48.5127 26.51C47.0427 25.9033 45.9343 25.075 45.1877 24.025L48.0927 21.33C48.7927 22.1 49.6093 22.7067 50.5427 23.15C51.4993 23.57 52.5843 23.78 53.7977 23.78C54.8243 23.78 55.6293 23.6283 56.2127 23.325C56.796 22.9983 57.0877 22.5083 57.0877 21.855C57.0877 21.3417 56.8893 20.9917 56.4927 20.805C56.096 20.595 55.5477 20.4317 54.8477 20.315L51.9427 19.86C51.126 19.7433 50.3677 19.5683 49.6677 19.335C48.9677 19.0783 48.361 18.74 47.8477 18.32C47.3343 17.9 46.926 17.3867 46.6227 16.78C46.3193 16.1733 46.1677 15.4383 46.1677 14.575C46.1677 12.685 46.891 11.2033 48.3377 10.13C49.7843 9.05667 51.8143 8.52 54.4277 8.52C56.201 8.52 57.706 8.765 58.9427 9.255C60.2027 9.72167 61.206 10.3983 61.9527 11.285L59.3627 14.225C58.826 13.6417 58.1377 13.1517 57.2977 12.755C56.4577 12.3583 55.4427 12.16 54.2527 12.16C52.246 12.16 51.2427 12.7667 51.2427 13.98C51.2427 14.5167 51.441 14.89 51.8377 15.1C52.2343 15.2867 52.7827 15.4383 53.4827 15.555L56.3527 16.01C57.1693 16.1267 57.9277 16.3133 58.6277 16.57C59.3277 16.8033 59.9343 17.13 60.4477 17.55C60.9843 17.97 61.4043 18.4833 61.7077 19.09C62.011 19.6967 62.1627 20.4317 62.1627 21.295C62.1627 23.185 61.4277 24.6783 59.9577 25.775C58.511 26.8717 56.446 27.42 53.7627 27.42ZM67.259 27V8.94H71.424V11.6H71.669C71.949 10.76 72.3457 10.0367 72.859 9.43C73.3957 8.82333 74.1423 8.52 75.099 8.52C76.849 8.52 77.9223 9.54667 78.319 11.6H78.529C78.669 11.18 78.844 10.7833 79.054 10.41C79.264 10.0367 79.5207 9.71 79.824 9.43C80.1273 9.15 80.489 8.92833 80.909 8.765C81.329 8.60167 81.819 8.52 82.379 8.52C84.899 8.52 86.159 10.375 86.159 14.085V27H81.994V14.61C81.994 13.77 81.8423 13.1867 81.539 12.86C81.259 12.51 80.8857 12.335 80.419 12.335C79.9757 12.335 79.5907 12.4867 79.264 12.79C78.9607 13.07 78.809 13.5133 78.809 14.12V27H74.609V14.61C74.609 13.77 74.469 13.1867 74.189 12.86C73.9323 12.51 73.5707 12.335 73.104 12.335C72.6373 12.335 72.2407 12.4867 71.914 12.79C71.5873 13.07 71.424 13.5133 71.424 14.12V27H67.259ZM99.4453 27.42C98.0453 27.42 96.7853 27.21 95.6653 26.79C94.5453 26.3467 93.5886 25.7167 92.7953 24.9C92.0253 24.0833 91.4303 23.0917 91.0103 21.925C90.5903 20.7583 90.3803 19.44 90.3803 17.97C90.3803 16.5 90.5903 15.1817 91.0103 14.015C91.4303 12.8483 92.0253 11.8567 92.7953 11.04C93.5886 10.2233 94.5453 9.605 95.6653 9.185C96.7853 8.74167 98.0453 8.52 99.4453 8.52C100.845 8.52 102.105 8.74167 103.225 9.185C104.345 9.605 105.29 10.2233 106.06 11.04C106.854 11.8567 107.46 12.8483 107.88 14.015C108.3 15.1817 108.51 16.5 108.51 17.97C108.51 19.44 108.3 20.7583 107.88 21.925C107.46 23.0917 106.854 24.0833 106.06 24.9C105.29 25.7167 104.345 26.3467 103.225 26.79C102.105 27.21 100.845 27.42 99.4453 27.42ZM99.4453 23.57C100.612 23.57 101.522 23.2083 102.175 22.485C102.829 21.7617 103.155 20.735 103.155 19.405V16.535C103.155 15.205 102.829 14.1783 102.175 13.455C101.522 12.7317 100.612 12.37 99.4453 12.37C98.2786 12.37 97.3686 12.7317 96.7153 13.455C96.062 14.1783 95.7353 15.205 95.7353 16.535V19.405C95.7353 20.735 96.062 21.7617 96.7153 22.485C97.3686 23.2083 98.2786 23.57 99.4453 23.57ZM123.302 6.63C122.135 6.63 121.318 6.39667 120.852 5.93C120.408 5.44 120.187 4.85667 120.187 4.18V3.165C120.187 2.465 120.408 1.88167 120.852 1.415C121.318 0.948332 122.135 0.714998 123.302 0.714998C124.468 0.714998 125.273 0.948332 125.717 1.415C126.183 1.88167 126.417 2.465 126.417 3.165V4.18C126.417 4.85667 126.183 5.44 125.717 5.93C125.273 6.39667 124.468 6.63 123.302 6.63ZM114.972 22.975H120.712V12.965H114.972V8.94H125.892V22.975H131.212V27H114.972V22.975ZM136.798 22.975H142.328V5.125H136.798V1.1H147.508V22.975H153.038V27H136.798V22.975ZM168.774 6.63C167.608 6.63 166.791 6.39667 166.324 5.93C165.881 5.44 165.659 4.85667 165.659 4.18V3.165C165.659 2.465 165.881 1.88167 166.324 1.415C166.791 0.948332 167.608 0.714998 168.774 0.714998C169.941 0.714998 170.746 0.948332 171.189 1.415C171.656 1.88167 171.889 2.465 171.889 3.165V4.18C171.889 4.85667 171.656 5.44 171.189 5.93C170.746 6.39667 169.941 6.63 168.774 6.63ZM160.444 22.975H166.184V12.965H160.444V8.94H171.364V22.975H176.684V27H160.444V22.975ZM182.446 31.83L193.681 0.399998H198.336L187.101 31.83H182.446ZM205.602 21.96L215.997 16.465V16.185L205.602 10.69V5.86L220.652 13.91V18.74L205.602 26.79V21.96Z" fill="black"/>
</svg>
