<svg width="25" height="25" viewBox="0 0 25 25" fill="none" xmlns="http://www.w3.org/2000/svg">
<circle cx="12.5" cy="12.5" r="12.5" fill="#040404"/>
<path d="M14.5311 15.0697L15.5811 14.0197C15.7217 13.8791 15.9004 13.7829 16.0951 13.7429C16.2898 13.7029 16.492 13.7209 16.6766 13.7947L17.9554 14.3066C18.1438 14.382 18.3054 14.5121 18.4192 14.6802C18.533 14.8483 18.5938 15.0467 18.5938 15.2497V17.5752C18.5941 17.7134 18.5662 17.8502 18.5119 17.9773C18.4575 18.1043 18.3777 18.219 18.2775 18.3141C18.1773 18.4093 18.0587 18.4831 17.929 18.5308C17.7993 18.5786 17.6612 18.5993 17.5232 18.5919C8.55973 18.0341 6.74941 10.4422 6.41332 7.535C6.39704 7.39288 6.41104 7.24891 6.45439 7.11258C6.49774 6.97625 6.56946 6.85065 6.66484 6.74402C6.76021 6.6374 6.87708 6.55218 7.00776 6.49396C7.13843 6.43575 7.27995 6.40585 7.42301 6.40625H9.70723C9.91023 6.40625 10.1086 6.46707 10.2767 6.58086C10.4448 6.69466 10.5749 6.85622 10.6504 7.04469L11.1618 8.32344C11.2356 8.50802 11.2536 8.7102 11.2136 8.90493C11.1736 9.09965 11.0773 9.27836 10.9368 9.41891L9.88676 10.4689C9.88676 10.4689 10.4689 14.562 14.5311 15.0697Z" fill="white"/>
<path d="M14.375 6.875V7.8125H16.5247L13.4375 10.8997L14.1003 11.5625L17.1875 8.47531V10.625H18.125V6.875H14.375Z" fill="#090909"/>
</svg>
