<svg width="25" height="25" viewBox="0 0 25 25" fill="none" xmlns="http://www.w3.org/2000/svg">
<path d="M12.5 0C5.59531 0 0 5.59531 0 12.5C0 19.4047 5.59531 25 12.5 25C19.4047 25 25 19.4047 25 12.5C25 5.59531 19.4047 0 12.5 0ZM18.6422 8.56875L16.5906 18.2313C16.4484 18.9203 16.0344 19.0812 15.4578 18.7641L12.3328 16.4547L10.8344 17.9141C10.6594 18.0844 10.5219 18.2266 10.2094 18.2266C9.80469 18.2266 9.87187 18.075 9.73594 17.6891L8.67188 14.1937L5.58125 13.2313C4.9125 13.0266 4.90781 12.5672 5.73281 12.2406L17.7734 7.59219C18.3203 7.34375 18.8531 7.72344 18.6422 8.56875Z" fill="#040404"/>
</svg>
